<svg width="80" height="80" viewBox="0 0 80 80" fill="none" xmlns="http://www.w3.org/2000/svg">
<path d="M15.4937 4.94374C14.95 5.02499 13.5437 5.35624 13.0125 5.53749C11.2375 6.12499 9.28748 7.56249 8.09998 9.14999C6.99373 10.625 6.56248 11.55 6.15623 13.3125C6.03748 13.8125 5.91248 14.4937 5.88123 14.825C5.78748 15.6562 5.78748 64.175 5.87498 64.9625C6.02498 66.2687 6.49373 67.9125 6.99373 68.9C7.64998 70.1875 8.83123 71.6312 9.90623 72.4687C11.3437 73.5875 12.3375 74.0812 13.9937 74.5C15.6062 74.9062 13.425 74.875 40.8437 74.875C68.1687 74.875 66.0375 74.9062 67.6562 74.5062C69.0937 74.15 69.9812 73.75 71.2125 72.8875C72.675 71.8625 73.8875 70.45 74.6875 68.8437C75.2625 67.6875 75.675 66.2062 75.8125 64.8C75.8562 64.3687 75.875 55.975 75.8562 39.4375C75.8375 16.2062 75.8312 14.6875 75.7312 14.1875C75.275 12 74.85 10.9312 73.8312 9.48749C73.1812 8.55624 72.4312 7.78124 71.5562 7.13124C70.2 6.11249 69.2375 5.64999 67.75 5.27499C66.0062 4.84374 68.25 4.87499 40.75 4.88124C27.05 4.88749 15.6875 4.91249 15.4937 4.94374ZM61.4562 13.875C63.0812 14.0625 64.8125 15.2062 65.6875 16.675C66.0437 17.2812 66.3562 18.0812 66.4375 18.5937C66.4812 18.9 66.5 25.3125 66.4875 40L66.4687 60.9687L66.2875 61.4375C65.65 63.1187 64.675 64.25 63.2812 64.9375C62.5125 65.3125 62.175 65.425 61.5687 65.5062C61.2562 65.5437 53.8375 65.5625 40.3125 65.55L19.5312 65.5312L18.8812 65.3C16.9812 64.6187 15.6937 63.325 15.0187 61.4062L14.8437 60.9062V39.7187V18.5312L14.9875 18.0937C15.3437 17.0375 15.8312 16.25 16.575 15.525C17.1437 14.9687 17.6 14.65 18.275 14.3437C18.9062 14.0625 19.3125 13.9375 19.8 13.875C20.4437 13.8 60.8 13.8 61.4562 13.875Z" fill="#5B9AFF"/>
<path d="M39.0312 17.0937C34.0125 17.7687 29.6687 20.9312 27.25 25.6625C26.1687 27.7625 25.4562 30.4812 25.3562 32.875L25.3437 33.2187L23.5562 33.2375C21.8312 33.25 21.7625 33.2562 21.65 33.3812C21.5312 33.5125 21.5312 33.85 21.5312 46.6062V59.7L21.6812 59.8187C21.825 59.9375 22.2125 59.9375 40.8437 59.9375C59.475 59.9375 59.8625 59.9375 60.0062 59.8187L60.1562 59.7V46.6C60.1562 34.1187 60.15 33.5 60.0437 33.3937C59.9437 33.2937 59.75 33.275 58.1375 33.25L56.3437 33.2187L56.3312 32.875C56.0937 27.1812 52.9937 21.8375 48.3187 19.0562C46.7562 18.125 45.0875 17.5125 43.2187 17.1812C42.2625 17.0125 39.9937 16.9625 39.0312 17.0937ZM42.4062 24.6562C43.9937 25 45.4062 25.7812 46.5625 26.9375C48.125 28.5062 49.0437 30.5062 49.2812 32.8562L49.3187 33.25H40.8437H32.3687L32.4062 32.8875C32.4937 32.1 32.575 31.6312 32.7187 31.0937C33.3875 28.6187 35.0687 26.4937 37.225 25.3937C38.1 24.95 38.9062 24.6937 39.9687 24.5375C40.3437 24.4812 41.9812 24.5625 42.4062 24.6562ZM41.9625 39.8375C42.9875 40.3062 43.6625 41.2687 43.8125 42.4625C43.9437 43.4937 43.6125 44.475 42.8562 45.3L42.4375 45.75V49.3125V52.875H40.8125H39.1875V49.2937V45.7187L38.7937 45.3062C38.1125 44.5875 37.8125 43.85 37.8125 42.875C37.8125 41.9375 38.1062 41.175 38.7125 40.5187C39.5687 39.5937 40.8562 39.325 41.9625 39.8375Z" fill="#5B9AFF"/>
</svg>
