<svg width="80" height="80" viewBox="0 0 80 80" fill="none" xmlns="http://www.w3.org/2000/svg">
<path d="M39.0895 3.38125C38.4917 3.45 38.1303 3.54375 37.5604 3.78124C35.7324 4.5375 33.967 6.24999 32.3892 8.8L31.9513 9.50625L31.6316 9.45625C31.1103 9.38125 30.2067 9.41875 29.7689 9.53124C29.1155 9.7 28.5664 9.99999 28.0451 10.4687C27.225 11.2062 26.8983 11.9312 26.8983 13C26.8983 13.8125 27.079 14.3875 27.5239 14.975L27.7324 15.2562L27.4961 16.3937C27.2945 17.3312 26.9331 19.4 26.7246 20.7625C26.7037 20.9312 26.669 21.0625 26.6551 21.0625C26.6412 21.0625 26.0712 20.925 25.3901 20.7562C22.4153 20.0187 19.7324 19.55 16.8549 19.275C15.4926 19.1437 12.0799 19.125 11.0165 19.2437C7.88181 19.5937 5.94958 20.4312 4.8653 21.9187C4.22586 22.7875 3.95479 23.6562 3.95479 24.8125C3.94784 27.4937 5.85227 30.7062 9.8905 34.8437C10.7454 35.7125 13.4005 38.1 14.5821 39.05C15.159 39.5187 15.6385 39.9187 15.6385 39.9375C15.6385 39.9562 15.1034 40.4187 14.45 40.9687C9.80709 44.8875 6.2276 49.1437 4.91396 52.3125C3.42656 55.9 4.55948 58.725 7.99302 60C9.38311 60.5187 11.1068 60.7625 13.3935 60.7687H14.9296L15.0964 61.0875C15.6872 62.2312 17.0008 63.025 18.4187 63.1062C19.7949 63.1812 21.1086 62.6187 21.9426 61.6L22.2484 61.225L23.0269 61.0125C23.9096 60.775 25.7376 60.1687 27.079 59.6687L27.9895 59.3312L28.2189 60.2125C29.5882 65.5187 31.5968 69.9 33.9461 72.7125C35.4474 74.5062 37.0321 75.5625 38.7002 75.8687C39.1729 75.9562 40.2015 75.9562 40.6742 75.8687C44.2467 75.2125 47.1868 71.5937 49.7376 64.7187C50.516 62.6125 50.9609 61.1687 51.5378 58.8562C51.6629 58.3437 51.781 57.9187 51.7949 57.9C51.8088 57.8875 52.3093 58.0062 52.9001 58.1625C59.0999 59.7937 65.3484 60.5437 69.1711 60.1187C72.132 59.7937 74.2102 58.8312 75.3084 57.2875C76.2815 55.9187 76.3649 54.1 75.5517 51.9187C75.2736 51.175 74.4465 49.6625 73.8279 48.7687L73.3414 48.075L73.5708 47.875C73.9114 47.575 74.3492 46.8312 74.5091 46.2875C74.8705 45.0125 74.523 43.8687 73.5082 42.9687C72.6186 42.1812 71.576 41.8375 70.2693 41.8937L69.5395 41.925L68.7054 41.3C68.0104 40.7812 66.0573 39.4 65.2928 38.9L65.0981 38.7687L67.0095 37.0562C69.5951 34.7437 71.152 33.0937 72.6742 31.0562C74.9261 28.0625 75.9756 25.4 75.6976 23.4375C75.3362 20.875 73.3067 19.2562 69.7411 18.675C68.9279 18.5437 68.6359 18.5312 66.6898 18.5312C64.5282 18.5312 64.1737 18.5562 62.0677 18.8187C59.7254 19.1125 56.3336 19.8187 53.4839 20.6C52.6429 20.8312 51.8922 21.0187 51.8227 21.025C51.7046 21.0312 51.649 20.8937 51.3918 19.875C50.1824 15.075 48.271 10.4625 46.3319 7.66875C44.5247 5.06249 42.4882 3.62499 40.2432 3.37499C39.9235 3.34374 39.6246 3.31875 39.5829 3.31875C39.5482 3.325 39.3188 3.35 39.0895 3.38125ZM41.3275 4.18749C42.4535 4.45 43.2945 4.9125 44.344 5.87499C46.5265 7.85625 48.5421 11.7187 50.1546 16.9937C50.5647 18.3437 51.3223 21.2062 51.2667 21.225C51.2667 21.225 50.669 21.4187 49.9392 21.65C49.2163 21.8812 47.9791 22.3 47.2007 22.575C46.0677 22.975 45.7758 23.0625 45.7272 22.9937C45.6924 22.9437 45.0182 21.9437 44.2259 20.7625L42.7941 18.625H39.2563C36.4761 18.625 35.7254 18.6437 35.7254 18.7C35.7254 18.8312 33.0703 22.75 32.98 22.75C32.9313 22.75 32.7159 22.6937 32.4865 22.6187C32.2641 22.55 31.6872 22.3812 31.2076 22.25L30.3388 22.0125L30.3527 21.8C30.3805 21.3812 31.3744 18.3062 31.9166 16.9625L32.1181 16.4562L32.6533 16.2187C33.2997 15.9312 34.0573 15.275 34.384 14.7187C35.0512 13.5687 35.0165 12.2437 34.2867 11.1375C34.0434 10.7625 33.4596 10.2062 33.0912 9.99374L32.9174 9.89999L33.3484 9.1625C34.1685 7.7625 35.3432 6.30624 36.2676 5.55624C36.7402 5.16875 37.6646 4.6125 38.1303 4.43124C39.1173 4.05 40.3197 3.95625 41.3275 4.18749ZM68.9626 18.9062C71.8888 19.25 73.7445 20.3187 74.5577 22.1375C75.7324 24.7562 73.9878 28.5187 69.3032 33.4375C67.7324 35.0875 64.3127 38.1687 64.1181 38.1062C64.0764 38.0875 63.4926 37.7312 62.8253 37.3125C60.3788 35.7625 57.2511 33.9312 54.6168 32.5C53.5951 31.9437 53.3101 31.7625 53.3101 31.6625C53.3101 31.4125 53.0321 28.7687 52.8931 27.7187C52.6498 25.8875 52.1286 22.8812 51.8575 21.8062C51.8227 21.6562 51.8019 21.525 51.8158 21.5062C51.8366 21.4937 52.1216 21.4 52.4552 21.3C56.6464 20.075 61.0252 19.1937 64.5352 18.8812C65.5291 18.7875 68.1147 18.8062 68.9626 18.9062ZM14.457 20C17.814 20.1687 21.3171 20.7437 25.4248 21.7937L26.5508 22.0812L26.516 22.275C26.2867 23.55 25.8488 28.3125 25.7028 31.2375L25.6194 32.9562L25.1955 33.225C22.7558 34.7875 22.033 35.2625 20.9557 36C19.4544 37.0375 18.2241 37.9375 16.9522 38.9312L16.0069 39.6687L15.1451 38.9812C12.49 36.8625 9.77234 34.3062 7.98607 32.2562C6.49172 30.5312 5.22673 28.5687 4.73325 27.2125C4.39962 26.2875 4.28841 25.5937 4.33012 24.7812C4.39267 23.6375 4.7541 22.8187 5.53255 22.0625C6.93655 20.7 9.2302 20.0437 12.9279 19.95C13.1016 19.9437 13.7897 19.9687 14.457 20ZM51.4405 21.9812C51.8436 23.875 52.2745 26.5437 52.5108 28.5C52.6568 29.7625 52.8167 31.4625 52.7888 31.4875C52.7749 31.5 52.3093 31.2687 51.7463 30.9812L50.7246 30.45L48.5699 27.2375C45.7758 23.0812 46.0399 23.5 46.1581 23.4312C46.3805 23.3062 50.2797 21.95 51.225 21.675C51.364 21.6312 51.371 21.6375 51.4405 21.9812ZM31.0895 23.475C31.6733 23.6687 32.1737 23.85 32.2085 23.875C32.2432 23.9062 31.4926 25.075 30.5404 26.4937C29.5882 27.9062 28.8027 29.0375 28.7888 29.0062C28.761 28.9312 29.2962 26.1625 29.616 24.75C29.7758 24.0437 29.9218 23.3937 29.9357 23.2937C29.9565 23.2 29.9843 23.125 30.0052 23.125C30.0191 23.125 30.5056 23.2812 31.0895 23.475ZM25.5013 33.95C25.4179 34.0937 19.8783 42.325 19.8366 42.3687C19.8227 42.3812 19.6837 42.3125 19.5239 42.2125C19.218 42.025 16.9383 40.3812 16.563 40.0812L16.3405 39.9062L17.2858 39.1875C19.4822 37.5125 21.9009 35.8437 24.3266 34.3187C25.3692 33.6625 25.543 33.5687 25.5638 33.6812C25.5777 33.75 25.5499 33.8687 25.5013 33.95ZM42.4257 38.4625C43.8644 40.6562 45.0321 42.4687 45.0182 42.4812C45.0043 42.4937 42.4813 42.4937 39.4231 42.4875L33.8488 42.4687L36.7819 38.4187C38.3944 36.1937 39.7359 34.3937 39.7637 34.4187C39.7915 34.45 40.9869 36.2687 42.4257 38.4625ZM55.013 35.7125C57.2928 37.2812 61.3032 40.2375 61.3032 40.3437C61.3032 40.4 58.662 42.275 58.6342 42.2375C58.6203 42.225 56.2154 38.6375 53.6994 34.8875C53.609 34.75 53.7063 34.8062 55.013 35.7125ZM18.0573 41.7C18.7246 42.1812 19.3223 42.6 19.3988 42.6437C19.4683 42.6812 19.5308 42.7437 19.5308 42.7687C19.5308 42.8 18.4465 44.4312 17.119 46.3937C15.7915 48.3625 14.7072 50.0125 14.7072 50.0625C14.7072 50.1125 15.43 51.275 16.3058 52.6437L17.9044 55.1312L22.4153 55.1437L26.9261 55.1562L27.0165 55.4687C27.1485 55.9375 27.1416 55.975 26.8497 56.05C25.3136 56.4187 22.9087 56.95 22.3805 57.0375L21.7133 57.1437L21.4074 56.8812C20.9557 56.5 19.9687 56.0812 19.3084 55.9875C17.6959 55.7625 15.7984 56.6125 15.0825 57.8812C14.867 58.2562 14.6655 59 14.6655 59.4125V59.7937L13.8175 59.8312C12.8514 59.8812 11.2667 59.8 10.3284 59.6562C7.92351 59.2875 6.12334 58.275 5.35184 56.85C4.99041 56.1875 4.85835 55.7312 4.81665 54.9625C4.65679 52.25 6.9296 48.575 11.4405 44.2187C12.4344 43.2625 14.589 41.3375 15.4231 40.6687L16.0069 40.1937L16.4309 40.5125C16.6672 40.6875 17.397 41.225 18.0573 41.7ZM63.5551 42.2187C64.8549 43.3375 65.7376 44.175 66.3284 44.8312C66.6342 45.175 66.6551 45.2312 66.6551 45.5562C66.6551 46.0187 66.8844 46.75 67.1763 47.2187C67.6003 47.9062 68.4066 48.4937 69.4074 48.8312C69.7619 48.95 69.9496 48.9687 70.7558 48.9687C71.5551 48.9625 71.7497 48.9437 72.0695 48.8312C72.278 48.7562 72.4726 48.7062 72.5004 48.725C72.6047 48.7812 73.6125 50.2562 73.9461 50.8375C74.8427 52.4062 75.2041 53.55 75.2041 54.8125C75.2041 56.9687 73.7515 58.6062 71.159 59.375C68.2328 60.2375 63.6455 60.05 57.4596 58.8187C55.8957 58.5 52.6915 57.7312 52.0451 57.5062L51.8714 57.45L52.066 56.4875C52.1772 55.9625 52.2815 55.4375 52.3023 55.3312L52.344 55.125L55.4439 55.1125L58.5508 55.0937L60.6776 51.9875C61.8453 50.2812 62.8462 48.8437 62.8879 48.7937C62.9643 48.7125 62.6863 48.2687 61.2406 46.1125C60.2815 44.6875 59.4822 43.4812 59.4613 43.425C59.4335 43.3625 59.6698 43.1437 60.2398 42.7062C60.6915 42.3562 61.3101 41.8625 61.616 41.6062C61.9218 41.3437 62.1998 41.1312 62.2276 41.125C62.2554 41.125 62.8531 41.6187 63.5551 42.2187ZM29.9565 55.1562C29.9565 55.1812 28.4066 55.6312 28.3857 55.6062C28.3788 55.6 28.3579 55.4875 28.3301 55.3562L28.2815 55.125H29.1225C29.5812 55.125 29.9565 55.1375 29.9565 55.1562ZM45.1294 55.7187C46.9157 56.3562 48.6603 56.9375 50.2519 57.4062C50.808 57.575 51.2875 57.7312 51.3223 57.7562C51.4961 57.8937 50.3075 62.2375 49.4109 64.7187C47.3675 70.4062 44.9626 73.8625 42.245 75C40.6255 75.675 38.874 75.5437 37.2893 74.6187C36.5873 74.2062 35.3501 73.0937 34.7524 72.325C32.6394 69.625 30.596 64.9875 29.331 60C29.185 59.4312 29.0877 58.95 29.1155 58.925C29.1364 58.9 29.8036 58.6312 30.5821 58.325C32.5004 57.5687 34.523 56.725 36.483 55.85L38.1164 55.125H40.7993H43.4822L45.1294 55.7187ZM51.8853 55.2625C51.8714 55.3437 51.7741 55.825 51.6768 56.3375C51.5795 56.8562 51.4822 57.2875 51.4683 57.3062C51.4196 57.3437 51.0304 57.2312 49.2789 56.675C47.6594 56.1625 44.9001 55.2 44.9001 55.15C44.9001 55.1375 46.4778 55.125 48.41 55.125H51.92L51.8853 55.2625Z" fill="#5B9AFF"/>
</svg>
